<?xml version="1.0" encoding="UTF-8"?>
<svg width="16px" height="16px" viewBox="0 0 16 16" version="1.1" xmlns="http://www.w3.org/2000/svg" xmlns:xlink="http://www.w3.org/1999/xlink">
    <!-- Generator: Sketch 54.1 (76490) - https://sketchapp.com -->
    <title>UI/16/user-small_icon</title>
    <desc>Created with Sketch.</desc>
    <defs>
        <path d="M13,14 L12,14 C12,11.790861 10.209139,10 8,10 C5.790861,10 4,11.790861 4,14 L3,14 C3,11.2385763 5.23857625,9 8,9 C10.7614237,9 13,11.2385763 13,14 Z M11,5 C11,6.65 9.665,8 8,8 C6.35,8 5,6.65 5,5 C5,3.35 6.35,2 8,2 C9.665,2 11,3.35 11,5 Z M10,5 C10,3.89636609 9.10672483,3 8,3 C6.9018278,3 6,3.9018278 6,5 C6,6.0981722 6.9018278,7 8,7 C9.10672483,7 10,6.10363391 10,5 Z" id="path-1"></path>
    </defs>
    <g id="UI/16/user-small" stroke="none" stroke-width="1" fill="none" fill-rule="evenodd">
        <mask id="mask-2" fill="white">
            <use xlink:href="#path-1"></use>
        </mask>
        <g id="user-small" fill-rule="nonzero"></g>
        <g id="colors/MAIN/black" mask="url(#mask-2)" fill="#000000" fill-opacity="0.9" opacity="0.900000036">
            <rect id="color" x="0" y="0" width="16" height="16" rx="2"></rect>
        </g>
    </g>
</svg>